{"title":"The Day the Earth Stood Still(1951)MPEG-4[DaScubaDude]","uid":14597054,"size":919092325,"categoryP":"video","categoryS":"movies","magnet":"?xt=urn:btih:8beb8ce849b6f4fd139035037c1276b7af9902d7&amp;dn=The+Day+the+Earth+Stood+Still%281951%29MPEG-4%5BDaScubaDude%5D&amp;tr=udp%3A%2F%2Ftracker.leechers-paradise.org%3A6969&amp;tr=udp%3A%2F%2Fzer0day.ch%3A1337&amp;tr=udp%3A%2F%2Fopen.demonii.com%3A1337&amp;tr=udp%3A%2F%2Ftracker.coppersurfer.tk%3A6969&amp;tr=udp%3A%2F%2Fexodus.desync.com%3A6969","seeders":1,"leechers":0,"uploader":"dascuba","files":1,"time":1463016589,"description":"The Day the Earth Stood Still (1951)\r\nApproved | 1h 32min | Drama, Sci-Fi | 28 September 1951 (USA)\r\nAn alien lands and tells the people of Earth that they must live peacefully or be destroyed as a danger to other planets.\r\nDirector: Robert Wise\r\nWriters: Edmund H. North (screen play), Harry Bates (based on a story by)\r\nStars: Michael Rennie, Patricia Neal, Hugh Marlowe | \r\n\r\nGeneral\r\nComplete name                            : DaytheEarthStoodStillDAYTHEEARTHSTOODSTILL_THX_SIDE1_Title1.mp4\r\nFormat                                   : MPEG-4\r\nFormat profile                           : Base Media\r\nCodec ID                                 : isom (isom/iso2/avc1/mp41)\r\nFile size                                : 877 MiB\r\nDuration                                 : 1h 32mn\r\nOverall bit rate mode                    : Variable\r\nOverall bit rate                         : 1 331 Kbps\r\nMovie name                               : DAYTHEEARTHSTOODSTILL_THX_SIDE1\r\nGenre                                    : Science_Fiction\r\nWriting application                      : Lavf54.6.100\r\n\r\nVideo\r\nID                                       : 1\r\nFormat                                   : AVC\r\nFormat/Info                              : Advanced Video Codec\r\nFormat profile                           :   \r\nFormat settings, CABAC                   : No\r\nFormat settings, ReFrames                : 6 frames\r\nFormat settings, GOP                     : M=1, N=60\r\nCodec ID                                 : avc1\r\nCodec ID/Info                            : Advanced Video Coding\r\nDuration                                 : 1h 32mn\r\nBit rate                                 : 1 196 Kbps\r\nWidth                                    : 720 pixels\r\nHeight                                   : 540 pixels\r\nDisplay aspect ratio                     : 4:3\r\nFrame rate mode                          : Constant\r\nFrame rate                               : 29.970 (30000/1001) fps\r\nColor space                              : YUV\r\nChroma subsampling                       : 4:2:0\r\nBit depth                                : 8 bits\r\nScan type                                : Progressive\r\nBits/(Pixel*Frame)                       : 0.103\r\nStream size                              : 788 MiB (90%)\r\n\r\nAudio\r\nID                                       : 2\r\nFormat                                   : AAC\r\nFormat/Info                              : Advanced Audio Codec\r\nFormat profile                           : LC\r\nCodec ID                                 : 40\r\nDuration                                 : 1h 32mn\r\nBit rate mode                            : Variable\r\nBit rate                                 : 128 Kbps\r\nMaximum bit rate                         : 140 Kbps\r\nChannel(s)                               : 2 channels\r\nChannel positions                        : Front: L R\r\nSampling rate                            : 44.1 KHz\r\nFrame rate                               : 43.066 fps (1024 spf)\r\nCompression mode                         : Lossy\r\nStream size                              : 84.3 MiB (10%)\r\nDefault                                  : Yes\r\nAlternate group                          : 1","torrent":{"xt":"urn:btih:8beb8ce849b6f4fd139035037c1276b7af9902d7","amp;dn":"The+Day+the+Earth+Stood+Still%281951%29MPEG-4%5BDaScubaDude%5D","amp;tr":["udp%3A%2F%2Ftracker.leechers-paradise.org%3A6969","udp%3A%2F%2Fzer0day.ch%3A1337","udp%3A%2F%2Fopen.demonii.com%3A1337","udp%3A%2F%2Ftracker.coppersurfer.tk%3A6969","udp%3A%2F%2Fexodus.desync.com%3A6969"],"infoHash":"8beb8ce849b6f4fd139035037c1276b7af9902d7","infoHashBuffer":{"type":"Buffer","data":[139,235,140,232,73,182,244,253,19,144,53,3,124,18,118,183,175,153,2,215]},"announce":[],"urlList":[]}}